<svg xmlns="http://www.w3.org/2000/svg" viewBox="0 0 32 32" id="Toolbox--Streamline-Twemoji" height="32" width="32">
  <desc>
    Toolbox Streamline Emoji: https://streamlinehq.com
  </desc>
  <path fill="#292f33" d="M23.11111111111111 0.4444444444444444H8.88888888888889C7.173333333333333 0.4444444444444444 5.777777777777778 1.8399999999999999 5.777777777777778 3.5555555555555554v3.5555555555555554h2.6666666666666665V3.5555555555555554c0 -0.2408888888888889 0.20355555555555555 -0.4444444444444444 0.4444444444444444 -0.4444444444444444h14.222222222222221c0.2408888888888889 0 0.4444444444444444 0.20355555555555555 0.4444444444444444 0.4444444444444444v3.5555555555555554h2.6666666666666665V3.5555555555555554c0 -1.7155555555555555 -1.3955555555555554 -3.1111111111111107 -3.1111111111111107 -3.1111111111111107z" stroke-width="0.8889"></path>
  <path fill="#dd2e44" d="M32 28.235555555555553S32 32 28.235555555555553 32H3.7644444444444445C0 32 0 28.235555555555553 0 28.235555555555553V10.352888888888888c0 -3.7644444444444445 3.7644444444444445 -3.7644444444444445 3.7644444444444445 -3.7644444444444445h24.470222222222223s3.7644444444444445 0 3.7644444444444445 3.7644444444444445v17.882666666666665z" stroke-width="0.8889"></path>
  <path fill="#ccd6dd" d="M3.5555555555555554 19.555555555555554h24.888888888888886v1.7777777777777777H3.5555555555555554z" stroke-width="0.8889"></path>
  <path fill="#be1931" d="M0 13.333333333333332h32v1.7777777777777777H0zm3.5555555555555554 8h24.888888888888886v1.7777777777777777H3.5555555555555554zm0 5.333333333333333h24.888888888888886v1.7777777777777777H3.5555555555555554z" stroke-width="0.8889"></path>
  <path fill="#ccd6dd" d="M3.5555555555555554 24.888888888888886h24.888888888888886v1.7777777777777777H3.5555555555555554z" stroke-width="0.8889"></path>
  <path fill="#aab8c2" d="M8.88888888888889 16.88888888888889H7.111111111111111c-0.4906666666666667 0 -0.8888888888888888 -0.3982222222222222 -0.8888888888888888 -0.8888888888888888v-3.5555555555555554c0 -0.4906666666666667 0.3982222222222222 -0.8888888888888888 0.8888888888888888 -0.8888888888888888h1.7777777777777777c0.4906666666666667 0 0.8888888888888888 0.3982222222222222 0.8888888888888888 0.8888888888888888v3.5555555555555554c0 0.4906666666666667 -0.3982222222222222 0.8888888888888888 -0.8888888888888888 0.8888888888888888zm16 0h-1.7777777777777777c-0.4906666666666667 0 -0.8888888888888888 -0.3982222222222222 -0.8888888888888888 -0.8888888888888888v-3.5555555555555554c0 -0.4906666666666667 0.3982222222222222 -0.8888888888888888 0.8888888888888888 -0.8888888888888888h1.7777777777777777c0.4906666666666667 0 0.8888888888888888 0.3982222222222222 0.8888888888888888 0.8888888888888888v3.5555555555555554c0 0.4906666666666667 -0.3982222222222222 0.8888888888888888 -0.8888888888888888 0.8888888888888888z" stroke-width="0.8889"></path>
  <path fill="#292f33" d="M22.22222222222222 15.11111111111111v0.8888888888888888c0 0.4906666666666667 0.3982222222222222 0.8888888888888888 0.8888888888888888 0.8888888888888888h1.7777777777777777c0.4906666666666667 0 0.8888888888888888 -0.3982222222222222 0.8888888888888888 -0.8888888888888888v-0.8888888888888888h-3.5555555555555554zM6.222222222222221 15.11111111111111v0.8888888888888888c0 0.4906666666666667 0.3982222222222222 0.8888888888888888 0.8888888888888888 0.8888888888888888h1.7777777777777777c0.4906666666666667 0 0.8888888888888888 -0.3982222222222222 0.8888888888888888 -0.8888888888888888v-0.8888888888888888H6.222222222222221z" stroke-width="0.8889"></path>
  <path fill="#292f33" d="M23.11111111111111 13.333333333333332h1.7777777777777777v2.6666666666666665h-1.7777777777777777zM7.111111111111111 13.333333333333332h1.7777777777777777v2.6666666666666665H7.111111111111111z" stroke-width="0.8889"></path>
</svg>